{
	"asset":{
		"generator":"Khronos glTF Blender I/O v5.1.20",
		"version":"2.0"
	},
	"extensionsUsed":[
		"KHR_materials_transmission",
		"KHR_materials_specular",
		"KHR_materials_ior"
	],
	"scene":0,
	"scenes":[
		{
			"name":"Scene",
			"nodes":[
				0
			]
		}
	],
	"nodes":[
		{
			"mesh":0,
			"name":"\uc790\uc0b0 4.002",
			"rotation":[
				0.5904871821403503,
				0,
				0,
				0.8070470094680786
			],
			"scale":[
				0.07523352652788162,
				0.07523352652788162,
				0.07523352652788162
			]
		}
	],
	"materials":[
		{
			"doubleSided":true,
			"extensions":{
				"KHR_materials_specular":{
					"specularFactor":0
				}
			},
			"name":"material0",
			"pbrMetallicRoughness":{
				"baseColorFactor":[
					0.342974454164505,
					0.35798120498657227,
					0.35798120498657227,
					1
				],
				"roughnessFactor":0.36818182468414307
			}
		},
		{
			"doubleSided":true,
			"extensions":{
				"KHR_materials_transmission":{
					"transmissionFactor":0.8999999761581421
				},
				"KHR_materials_specular":{
					"specularFactor":0.3181818127632141
				},
				"KHR_materials_ior":{
					"ior":1.4500000476837158
				}
			},
			"name":"Material.001",
			"pbrMetallicRoughness":{
				"baseColorFactor":[
					0.7311019897460938,
					0.7658063173294067,
					0.770434558391571,
					1
				],
				"metallicFactor":0,
				"roughnessFactor":0
			}
		},
		{
			"alphaMode":"BLEND",
			"doubleSided":true,
			"extensions":{
				"KHR_materials_specular":{
					"specularFactor":0.3181818127632141
				},
				"KHR_materials_ior":{
					"ior":1.4500000476837158
				}
			},
			"name":"Material.003",
			"pbrMetallicRoughness":{
				"baseColorTexture":{
					"index":0
				},
				"metallicFactor":0,
				"roughnessFactor":0.7772727608680725
			}
		},
		{
			"doubleSided":true,
			"extensions":{
				"KHR_materials_transmission":{
					"transmissionFactor":0.8999999761581421
				},
				"KHR_materials_specular":{
					"specularFactor":0.3181818127632141
				},
				"KHR_materials_ior":{
					"ior":1.4500000476837158
				}
			},
			"name":"Material.004",
			"pbrMetallicRoughness":{
				"baseColorFactor":[
					0.6210801005363464,
					0.6579961776733398,
					0.6604719161987305,
					1
				],
				"metallicFactor":0,
				"roughnessFactor":0
			}
		},
		{
			"alphaMode":"BLEND",
			"doubleSided":true,
			"name":"Material.007",
			"pbrMetallicRoughness":{
				"baseColorFactor":[
					0.4373518228530884,
					1,
					0.0003910191298928112,
					0.5454545021057129
				],
				"metallicFactor":0,
				"roughnessFactor":0.10454544425010681
			}
		}
	],
	"meshes":[
		{
			"name":"\uc790\uc0b0 4.002",
			"primitives":[
				{
					"attributes":{
						"POSITION":0,
						"NORMAL":1,
						"TEXCOORD_0":2
					},
					"indices":3,
					"material":0
				},
				{
					"attributes":{
						"POSITION":4,
						"NORMAL":5,
						"TEXCOORD_0":6
					},
					"indices":7,
					"material":1
				},
				{
					"attributes":{
						"POSITION":8,
						"NORMAL":9,
						"TEXCOORD_0":10
					},
					"indices":11,
					"material":2
				},
				{
					"attributes":{
						"POSITION":12,
						"NORMAL":13,
						"TEXCOORD_0":14
					},
					"indices":15,
					"material":3
				},
				{
					"attributes":{
						"POSITION":16,
						"NORMAL":17,
						"TEXCOORD_0":18
					},
					"indices":19,
					"material":4
				}
			]
		}
	],
	"textures":[
		{
			"sampler":0,
			"source":0
		}
	],
	"images":[
		{
			"mimeType":"image/png",
			"name":"nudgeLogo",
			"uri":"nudgeLogo.png"
		}
	],
	"accessors":[
		{
			"bufferView":0,
			"componentType":5126,
			"count":3682,
			"max":[
				11.53680419921875,
				2.249541997909546,
				11.249213218688965
			],
			"min":[
				-11.53382682800293,
				-2.2482874393463135,
				-11.247819900512695
			],
			"type":"VEC3"
		},
		{
			"bufferView":1,
			"componentType":5126,
			"count":3682,
			"type":"VEC3"
		},
		{
			"bufferView":2,
			"componentType":5126,
			"count":3682,
			"type":"VEC2"
		},
		{
			"bufferView":3,
			"componentType":5123,
			"count":18264,
			"type":"SCALAR"
		},
		{
			"bufferView":4,
			"componentType":5126,
			"count":1004,
			"max":[
				16.370771408081055,
				17.191661834716797,
				17.785808563232422
			],
			"min":[
				-13.241857528686523,
				-17.37761688232422,
				-20.81969451904297
			],
			"type":"VEC3"
		},
		{
			"bufferView":5,
			"componentType":5126,
			"count":1004,
			"type":"VEC3"
		},
		{
			"bufferView":6,
			"componentType":5126,
			"count":1004,
			"type":"VEC2"
		},
		{
			"bufferView":7,
			"componentType":5123,
			"count":4968,
			"type":"SCALAR"
		},
		{
			"bufferView":8,
			"componentType":5126,
			"count":72,
			"max":[
				10.892230987548828,
				16.730005264282227,
				15.957415580749512
			],
			"min":[
				-10.985882759094238,
				2.6555182933807373,
				-12.871038436889648
			],
			"type":"VEC3"
		},
		{
			"bufferView":9,
			"componentType":5126,
			"count":72,
			"type":"VEC3"
		},
		{
			"bufferView":10,
			"componentType":5126,
			"count":72,
			"type":"VEC2"
		},
		{
			"bufferView":11,
			"componentType":5123,
			"count":336,
			"type":"SCALAR"
		},
		{
			"bufferView":12,
			"componentType":5126,
			"count":252,
			"max":[
				17.544090270996094,
				18.135135650634766,
				-12.652786254882812
			],
			"min":[
				-13.983643531799316,
				-8.617708206176758,
				-21.825881958007812
			],
			"type":"VEC3"
		},
		{
			"bufferView":13,
			"componentType":5126,
			"count":252,
			"type":"VEC3"
		},
		{
			"bufferView":14,
			"componentType":5126,
			"count":252,
			"type":"VEC2"
		},
		{
			"bufferView":15,
			"componentType":5123,
			"count":1092,
			"type":"SCALAR"
		},
		{
			"bufferView":16,
			"componentType":5126,
			"count":308,
			"max":[
				11.296783447265625,
				11.637226104736328,
				16.262115478515625
			],
			"min":[
				-11.388362884521484,
				-15.368693351745605,
				-8.36458683013916
			],
			"type":"VEC3"
		},
		{
			"bufferView":17,
			"componentType":5126,
			"count":308,
			"type":"VEC3"
		},
		{
			"bufferView":18,
			"componentType":5126,
			"count":308,
			"type":"VEC2"
		},
		{
			"bufferView":19,
			"componentType":5123,
			"count":1500,
			"type":"SCALAR"
		}
	],
	"bufferViews":[
		{
			"buffer":0,
			"byteLength":44184,
			"byteOffset":0,
			"target":34962
		},
		{
			"buffer":0,
			"byteLength":44184,
			"byteOffset":44184,
			"target":34962
		},
		{
			"buffer":0,
			"byteLength":29456,
			"byteOffset":88368,
			"target":34962
		},
		{
			"buffer":0,
			"byteLength":36528,
			"byteOffset":117824,
			"target":34963
		},
		{
			"buffer":0,
			"byteLength":12048,
			"byteOffset":154352,
			"target":34962
		},
		{
			"buffer":0,
			"byteLength":12048,
			"byteOffset":166400,
			"target":34962
		},
		{
			"buffer":0,
			"byteLength":8032,
			"byteOffset":178448,
			"target":34962
		},
		{
			"buffer":0,
			"byteLength":9936,
			"byteOffset":186480,
			"target":34963
		},
		{
			"buffer":0,
			"byteLength":864,
			"byteOffset":196416,
			"target":34962
		},
		{
			"buffer":0,
			"byteLength":864,
			"byteOffset":197280,
			"target":34962
		},
		{
			"buffer":0,
			"byteLength":576,
			"byteOffset":198144,
			"target":34962
		},
		{
			"buffer":0,
			"byteLength":672,
			"byteOffset":198720,
			"target":34963
		},
		{
			"buffer":0,
			"byteLength":3024,
			"byteOffset":199392,
			"target":34962
		},
		{
			"buffer":0,
			"byteLength":3024,
			"byteOffset":202416,
			"target":34962
		},
		{
			"buffer":0,
			"byteLength":2016,
			"byteOffset":205440,
			"target":34962
		},
		{
			"buffer":0,
			"byteLength":2184,
			"byteOffset":207456,
			"target":34963
		},
		{
			"buffer":0,
			"byteLength":3696,
			"byteOffset":209640,
			"target":34962
		},
		{
			"buffer":0,
			"byteLength":3696,
			"byteOffset":213336,
			"target":34962
		},
		{
			"buffer":0,
			"byteLength":2464,
			"byteOffset":217032,
			"target":34962
		},
		{
			"buffer":0,
			"byteLength":3000,
			"byteOffset":219496,
			"target":34963
		}
	],
	"samplers":[
		{
			"magFilter":9729,
			"minFilter":9987,
			"wrapS":33071,
			"wrapT":33071
		}
	],
	"buffers":[
		{
			"byteLength":222496,
			"uri":"scene.bin"
		}
	]
}
