{
	"asset":{
		"generator":"Khronos glTF Blender I/O v5.1.20",
		"version":"2.0"
	},
	"scene":0,
	"scenes":[
		{
			"name":"Scene",
			"nodes":[
				10,
				12
			]
		}
	],
	"nodes":[
		{
			"name":"Bone.003",
			"rotation":[
				-0.03087305650115013,
				3.958402616105472e-12,
				6.968651877770071e-09,
				0.9995232820510864
			],
			"scale":[
				1,
				1,
				0.9999998807907104
			],
			"translation":[
				2.3977815288844795e-09,
				0.47117695212364197,
				5.471520125865936e-09
			]
		},
		{
			"children":[
				0
			],
			"name":"Bone.002",
			"rotation":[
				-0.06690651178359985,
				7.497724219263091e-09,
				1.755794087898721e-08,
				0.9977592825889587
			],
			"scale":[
				0.9999999403953552,
				1,
				0.9999999403953552
			],
			"translation":[
				3.403158643777715e-09,
				0.32810935378074646,
				-6.332993507385254e-08
			]
		},
		{
			"children":[
				1
			],
			"name":"Bone.007",
			"rotation":[
				3.58559226754096e-08,
				-2.0167367775769662e-10,
				-2.9937825551940023e-09,
				1
			],
			"scale":[
				0.9999999403953552,
				0.9999999403953552,
				0.9999999403953552
			],
			"translation":[
				1.1221537477013044e-08,
				0.3281092643737793,
				-6.51925802230835e-08
			]
		},
		{
			"children":[
				2
			],
			"name":"Bone.005",
			"rotation":[
				1.1641533070871901e-08,
				-2.0167367775769662e-10,
				-1.1311317438256197e-09,
				1
			],
			"scale":[
				0.9999999403953552,
				0.9999998807907104,
				1
			],
			"translation":[
				8.35363778151077e-09,
				0.3281093239784241,
				-4.842877388000488e-08
			]
		},
		{
			"children":[
				3
			],
			"name":"Bone.006",
			"rotation":[
				-3.5390257835388184e-08,
				1.2526935044832044e-10,
				7.025978687735801e-10,
				1
			],
			"scale":[
				0.9999999403953552,
				1,
				1
			],
			"translation":[
				-2.9179908267451538e-08,
				0.3281092345714569,
				-3.725290298461914e-09
			]
		},
		{
			"children":[
				4
			],
			"name":"Bone.001",
			"rotation":[
				0.22721491754055023,
				-3.201053311308044e-11,
				-5.213038889451127e-08,
				0.9738446474075317
			],
			"scale":[
				0.9999999403953552,
				0.9999999403953552,
				0.9999999403953552
			],
			"translation":[
				3.4835530016152916e-09,
				0.4319239854812622,
				7.450580596923828e-09
			]
		},
		{
			"children":[
				5
			],
			"name":"Bone.008",
			"rotation":[
				2.0489098417897367e-08,
				4.941469455843617e-11,
				-1.7056939194404208e-10,
				1
			],
			"scale":[
				0.9999999403953552,
				0.9999998807907104,
				0.9999998807907104
			],
			"translation":[
				5.4670650229127205e-09,
				0.4319239556789398,
				5.587935447692871e-09
			]
		},
		{
			"children":[
				6
			],
			"name":"Bone",
			"rotation":[
				-0.1405298262834549,
				-1.2040412400438072e-07,
				1.6752466081015882e-08,
				0.99007648229599
			],
			"translation":[
				4.656612873077393e-10,
				0,
				0
			]
		},
		{
			"name":"ik",
			"rotation":[
				-0.02853652462363243,
				-1.2671146976117598e-07,
				3.401817494363968e-09,
				0.9995927810668945
			],
			"scale":[
				1,
				0.9999999403953552,
				0.9999999403953552
			],
			"translation":[
				9.313225746154785e-10,
				3.1133713722229004,
				-9.313225746154785e-10
			]
		},
		{
			"mesh":0,
			"name":"B\u00e9zierCurve.001",
			"skin":0
		},
		{
			"children":[
				9,
				7,
				8
			],
			"name":"Armature",
			"rotation":[
				0,
				-0.546503484249115,
				0,
				0.8374568223953247
			],
			"translation":[
				0.007161140441894531,
				0,
				-0.03982806205749512
			]
		},
		{
			"name":"Bone",
			"rotation":[
				-1.7763570511584873e-15,
				-1.0352265204337306e-22,
				-1.7763570511584873e-15,
				1
			],
			"scale":[
				0.9999999403953552,
				0.9999999403953552,
				0.9999999403953552
			],
			"translation":[
				1.683943429142687e-09,
				5.162108518419473e-10,
				1.7870165069933108e-10
			]
		},
		{
			"children":[
				11
			],
			"name":"Armature.001",
			"rotation":[
				0.5,
				-0.5,
				0.5,
				0.4999999701976776
			],
			"scale":[
				1.7516531944274902,
				1.7516531944274902,
				1.7516531944274902
			],
			"translation":[
				0.007161140441894531,
				-0.14880278706550598,
				-0.03982806205749512
			]
		}
	],
	"animations":[
		{
			"channels":[
				{
					"sampler":0,
					"target":{
						"node":7,
						"path":"translation"
					}
				},
				{
					"sampler":1,
					"target":{
						"node":7,
						"path":"rotation"
					}
				},
				{
					"sampler":2,
					"target":{
						"node":7,
						"path":"scale"
					}
				},
				{
					"sampler":3,
					"target":{
						"node":6,
						"path":"translation"
					}
				},
				{
					"sampler":4,
					"target":{
						"node":6,
						"path":"rotation"
					}
				},
				{
					"sampler":5,
					"target":{
						"node":6,
						"path":"scale"
					}
				},
				{
					"sampler":6,
					"target":{
						"node":5,
						"path":"translation"
					}
				},
				{
					"sampler":7,
					"target":{
						"node":5,
						"path":"rotation"
					}
				},
				{
					"sampler":8,
					"target":{
						"node":5,
						"path":"scale"
					}
				},
				{
					"sampler":9,
					"target":{
						"node":4,
						"path":"translation"
					}
				},
				{
					"sampler":10,
					"target":{
						"node":4,
						"path":"rotation"
					}
				},
				{
					"sampler":11,
					"target":{
						"node":4,
						"path":"scale"
					}
				},
				{
					"sampler":12,
					"target":{
						"node":3,
						"path":"translation"
					}
				},
				{
					"sampler":13,
					"target":{
						"node":3,
						"path":"rotation"
					}
				},
				{
					"sampler":14,
					"target":{
						"node":3,
						"path":"scale"
					}
				},
				{
					"sampler":15,
					"target":{
						"node":2,
						"path":"translation"
					}
				},
				{
					"sampler":16,
					"target":{
						"node":2,
						"path":"rotation"
					}
				},
				{
					"sampler":17,
					"target":{
						"node":2,
						"path":"scale"
					}
				},
				{
					"sampler":18,
					"target":{
						"node":1,
						"path":"translation"
					}
				},
				{
					"sampler":19,
					"target":{
						"node":1,
						"path":"rotation"
					}
				},
				{
					"sampler":20,
					"target":{
						"node":1,
						"path":"scale"
					}
				},
				{
					"sampler":21,
					"target":{
						"node":0,
						"path":"translation"
					}
				},
				{
					"sampler":22,
					"target":{
						"node":0,
						"path":"rotation"
					}
				},
				{
					"sampler":23,
					"target":{
						"node":0,
						"path":"scale"
					}
				},
				{
					"sampler":24,
					"target":{
						"node":8,
						"path":"translation"
					}
				},
				{
					"sampler":25,
					"target":{
						"node":8,
						"path":"rotation"
					}
				},
				{
					"sampler":26,
					"target":{
						"node":8,
						"path":"scale"
					}
				}
			],
			"name":"ArmatureAction",
			"samplers":[
				{
					"input":7,
					"interpolation":"STEP",
					"output":8
				},
				{
					"input":9,
					"interpolation":"LINEAR",
					"output":10
				},
				{
					"input":7,
					"interpolation":"STEP",
					"output":11
				},
				{
					"input":7,
					"interpolation":"STEP",
					"output":12
				},
				{
					"input":9,
					"interpolation":"LINEAR",
					"output":13
				},
				{
					"input":7,
					"interpolation":"STEP",
					"output":14
				},
				{
					"input":7,
					"interpolation":"STEP",
					"output":15
				},
				{
					"input":9,
					"interpolation":"LINEAR",
					"output":16
				},
				{
					"input":7,
					"interpolation":"STEP",
					"output":17
				},
				{
					"input":7,
					"interpolation":"STEP",
					"output":18
				},
				{
					"input":9,
					"interpolation":"LINEAR",
					"output":19
				},
				{
					"input":7,
					"interpolation":"STEP",
					"output":20
				},
				{
					"input":7,
					"interpolation":"STEP",
					"output":21
				},
				{
					"input":9,
					"interpolation":"LINEAR",
					"output":22
				},
				{
					"input":7,
					"interpolation":"STEP",
					"output":23
				},
				{
					"input":7,
					"interpolation":"STEP",
					"output":24
				},
				{
					"input":9,
					"interpolation":"LINEAR",
					"output":25
				},
				{
					"input":7,
					"interpolation":"STEP",
					"output":26
				},
				{
					"input":7,
					"interpolation":"STEP",
					"output":27
				},
				{
					"input":9,
					"interpolation":"LINEAR",
					"output":28
				},
				{
					"input":7,
					"interpolation":"STEP",
					"output":29
				},
				{
					"input":7,
					"interpolation":"STEP",
					"output":30
				},
				{
					"input":9,
					"interpolation":"LINEAR",
					"output":31
				},
				{
					"input":7,
					"interpolation":"STEP",
					"output":32
				},
				{
					"input":9,
					"interpolation":"LINEAR",
					"output":33
				},
				{
					"input":9,
					"interpolation":"LINEAR",
					"output":34
				},
				{
					"input":7,
					"interpolation":"STEP",
					"output":20
				}
			]
		},
		{
			"channels":[
				{
					"sampler":0,
					"target":{
						"node":11,
						"path":"translation"
					}
				},
				{
					"sampler":1,
					"target":{
						"node":11,
						"path":"rotation"
					}
				},
				{
					"sampler":2,
					"target":{
						"node":11,
						"path":"scale"
					}
				}
			],
			"name":"Armature.001Action",
			"samplers":[
				{
					"input":35,
					"interpolation":"LINEAR",
					"output":36
				},
				{
					"input":35,
					"interpolation":"LINEAR",
					"output":37
				},
				{
					"input":35,
					"interpolation":"LINEAR",
					"output":38
				}
			]
		}
	],
	"materials":[
		{
			"doubleSided":true,
			"name":"Material",
			"pbrMetallicRoughness":{
				"baseColorFactor":[
					0.023668229579925537,
					0.023668229579925537,
					0.023668229579925537,
					1
				],
				"metallicFactor":0,
				"roughnessFactor":0.6727272272109985
			}
		}
	],
	"meshes":[
		{
			"name":"B\u00e9zierCurve.001",
			"primitives":[
				{
					"attributes":{
						"POSITION":0,
						"NORMAL":1,
						"TEXCOORD_0":2,
						"JOINTS_0":3,
						"WEIGHTS_0":4
					},
					"indices":5,
					"material":0
				}
			]
		}
	],
	"skins":[
		{
			"inverseBindMatrices":6,
			"joints":[
				7,
				6,
				5,
				4,
				3,
				2,
				1,
				0,
				8
			],
			"name":"Armature"
		},
		{
			"inverseBindMatrices":39,
			"joints":[
				11
			],
			"name":"Armature.001"
		}
	],
	"accessors":[
		{
			"bufferView":0,
			"componentType":5126,
			"count":14846,
			"max":[
				0.3866448998451233,
				3.187119483947754,
				0.1802239716053009
			],
			"min":[
				-0.22091467678546906,
				-0.018605832010507584,
				-0.3105334937572479
			],
			"type":"VEC3"
		},
		{
			"bufferView":1,
			"componentType":5126,
			"count":14846,
			"type":"VEC3"
		},
		{
			"bufferView":2,
			"componentType":5126,
			"count":14846,
			"type":"VEC2"
		},
		{
			"bufferView":3,
			"componentType":5121,
			"count":14846,
			"type":"VEC4"
		},
		{
			"bufferView":4,
			"componentType":5126,
			"count":14846,
			"type":"VEC4"
		},
		{
			"bufferView":5,
			"componentType":5123,
			"count":64128,
			"type":"SCALAR"
		},
		{
			"bufferView":6,
			"componentType":5126,
			"count":9,
			"type":"MAT4"
		},
		{
			"bufferView":7,
			"componentType":5126,
			"count":2,
			"max":[
				4.666666666666667
			],
			"min":[
				0.041666666666666664
			],
			"type":"SCALAR"
		},
		{
			"bufferView":8,
			"componentType":5126,
			"count":2,
			"type":"VEC3"
		},
		{
			"bufferView":9,
			"componentType":5126,
			"count":112,
			"max":[
				4.666666666666667
			],
			"min":[
				0.041666666666666664
			],
			"type":"SCALAR"
		},
		{
			"bufferView":10,
			"componentType":5126,
			"count":112,
			"type":"VEC4"
		},
		{
			"bufferView":11,
			"componentType":5126,
			"count":2,
			"type":"VEC3"
		},
		{
			"bufferView":12,
			"componentType":5126,
			"count":2,
			"type":"VEC3"
		},
		{
			"bufferView":13,
			"componentType":5126,
			"count":112,
			"type":"VEC4"
		},
		{
			"bufferView":14,
			"componentType":5126,
			"count":2,
			"type":"VEC3"
		},
		{
			"bufferView":15,
			"componentType":5126,
			"count":2,
			"type":"VEC3"
		},
		{
			"bufferView":16,
			"componentType":5126,
			"count":112,
			"type":"VEC4"
		},
		{
			"bufferView":17,
			"componentType":5126,
			"count":2,
			"type":"VEC3"
		},
		{
			"bufferView":18,
			"componentType":5126,
			"count":2,
			"type":"VEC3"
		},
		{
			"bufferView":19,
			"componentType":5126,
			"count":112,
			"type":"VEC4"
		},
		{
			"bufferView":20,
			"componentType":5126,
			"count":2,
			"type":"VEC3"
		},
		{
			"bufferView":21,
			"componentType":5126,
			"count":2,
			"type":"VEC3"
		},
		{
			"bufferView":22,
			"componentType":5126,
			"count":112,
			"type":"VEC4"
		},
		{
			"bufferView":23,
			"componentType":5126,
			"count":2,
			"type":"VEC3"
		},
		{
			"bufferView":24,
			"componentType":5126,
			"count":2,
			"type":"VEC3"
		},
		{
			"bufferView":25,
			"componentType":5126,
			"count":112,
			"type":"VEC4"
		},
		{
			"bufferView":26,
			"componentType":5126,
			"count":2,
			"type":"VEC3"
		},
		{
			"bufferView":27,
			"componentType":5126,
			"count":2,
			"type":"VEC3"
		},
		{
			"bufferView":28,
			"componentType":5126,
			"count":112,
			"type":"VEC4"
		},
		{
			"bufferView":29,
			"componentType":5126,
			"count":2,
			"type":"VEC3"
		},
		{
			"bufferView":30,
			"componentType":5126,
			"count":2,
			"type":"VEC3"
		},
		{
			"bufferView":31,
			"componentType":5126,
			"count":112,
			"type":"VEC4"
		},
		{
			"bufferView":32,
			"componentType":5126,
			"count":2,
			"type":"VEC3"
		},
		{
			"bufferView":33,
			"componentType":5126,
			"count":112,
			"type":"VEC3"
		},
		{
			"bufferView":34,
			"componentType":5126,
			"count":112,
			"type":"VEC4"
		},
		{
			"bufferView":35,
			"componentType":5126,
			"count":1,
			"max":[
				0.041666666666666664
			],
			"min":[
				0.041666666666666664
			],
			"type":"SCALAR"
		},
		{
			"bufferView":36,
			"componentType":5126,
			"count":1,
			"type":"VEC3"
		},
		{
			"bufferView":37,
			"componentType":5126,
			"count":1,
			"type":"VEC4"
		},
		{
			"bufferView":38,
			"componentType":5126,
			"count":1,
			"type":"VEC3"
		},
		{
			"bufferView":39,
			"componentType":5126,
			"count":1,
			"type":"MAT4"
		}
	],
	"bufferViews":[
		{
			"buffer":0,
			"byteLength":178152,
			"byteOffset":0,
			"target":34962
		},
		{
			"buffer":0,
			"byteLength":178152,
			"byteOffset":178152,
			"target":34962
		},
		{
			"buffer":0,
			"byteLength":118768,
			"byteOffset":356304,
			"target":34962
		},
		{
			"buffer":0,
			"byteLength":59384,
			"byteOffset":475072,
			"target":34962
		},
		{
			"buffer":0,
			"byteLength":237536,
			"byteOffset":534456,
			"target":34962
		},
		{
			"buffer":0,
			"byteLength":128256,
			"byteOffset":771992,
			"target":34963
		},
		{
			"buffer":0,
			"byteLength":576,
			"byteOffset":900248
		},
		{
			"buffer":0,
			"byteLength":8,
			"byteOffset":900824
		},
		{
			"buffer":0,
			"byteLength":24,
			"byteOffset":900832
		},
		{
			"buffer":0,
			"byteLength":448,
			"byteOffset":900856
		},
		{
			"buffer":0,
			"byteLength":1792,
			"byteOffset":901304
		},
		{
			"buffer":0,
			"byteLength":24,
			"byteOffset":903096
		},
		{
			"buffer":0,
			"byteLength":24,
			"byteOffset":903120
		},
		{
			"buffer":0,
			"byteLength":1792,
			"byteOffset":903144
		},
		{
			"buffer":0,
			"byteLength":24,
			"byteOffset":904936
		},
		{
			"buffer":0,
			"byteLength":24,
			"byteOffset":904960
		},
		{
			"buffer":0,
			"byteLength":1792,
			"byteOffset":904984
		},
		{
			"buffer":0,
			"byteLength":24,
			"byteOffset":906776
		},
		{
			"buffer":0,
			"byteLength":24,
			"byteOffset":906800
		},
		{
			"buffer":0,
			"byteLength":1792,
			"byteOffset":906824
		},
		{
			"buffer":0,
			"byteLength":24,
			"byteOffset":908616
		},
		{
			"buffer":0,
			"byteLength":24,
			"byteOffset":908640
		},
		{
			"buffer":0,
			"byteLength":1792,
			"byteOffset":908664
		},
		{
			"buffer":0,
			"byteLength":24,
			"byteOffset":910456
		},
		{
			"buffer":0,
			"byteLength":24,
			"byteOffset":910480
		},
		{
			"buffer":0,
			"byteLength":1792,
			"byteOffset":910504
		},
		{
			"buffer":0,
			"byteLength":24,
			"byteOffset":912296
		},
		{
			"buffer":0,
			"byteLength":24,
			"byteOffset":912320
		},
		{
			"buffer":0,
			"byteLength":1792,
			"byteOffset":912344
		},
		{
			"buffer":0,
			"byteLength":24,
			"byteOffset":914136
		},
		{
			"buffer":0,
			"byteLength":24,
			"byteOffset":914160
		},
		{
			"buffer":0,
			"byteLength":1792,
			"byteOffset":914184
		},
		{
			"buffer":0,
			"byteLength":24,
			"byteOffset":915976
		},
		{
			"buffer":0,
			"byteLength":1344,
			"byteOffset":916000
		},
		{
			"buffer":0,
			"byteLength":1792,
			"byteOffset":917344
		},
		{
			"buffer":0,
			"byteLength":4,
			"byteOffset":919136
		},
		{
			"buffer":0,
			"byteLength":12,
			"byteOffset":919140
		},
		{
			"buffer":0,
			"byteLength":16,
			"byteOffset":919152
		},
		{
			"buffer":0,
			"byteLength":12,
			"byteOffset":919168
		},
		{
			"buffer":0,
			"byteLength":64,
			"byteOffset":919180
		}
	],
	"buffers":[
		{
			"byteLength":919244,
			"uri":"scene2.bin"
		}
	]
}
